<svg xmlns="http://www.w3.org/2000/svg" version="1.1" xmlns:xlink="http://www.w3.org/1999/xlink" xmlns:svgjs="http://svgjs.dev/svgjs" width="1500" height="250" viewBox="0 0 1500 250"><g transform="matrix(1,0,0,1,-0.9090909090909918,-0.0005973696237759896)"><svg viewBox="0 0 396 66" data-background-color="#444444" preserveAspectRatio="xMidYMid meet" height="250" width="1500" xmlns="http://www.w3.org/2000/svg" xmlns:xlink="http://www.w3.org/1999/xlink"><g id="tight-bounds" transform="matrix(1,0,0,1,0.2400000000000091,0.0001577055806762928)"><svg viewBox="0 0 395.52 65.99960009304951" height="65.99960009304951" width="395.52"><g><svg viewBox="0 0 487.8822442955345 81.41189577266577" height="65.99960009304951" width="395.52"><g transform="matrix(1,0,0,1,92.3622442955345,17.51352569418133)"><svg viewBox="0 0 395.52000000000004 46.384844384303115" height="46.384844384303115" width="395.52000000000004"><g id="textblocktransform"><svg viewBox="0 0 395.52000000000004 46.384844384303115" height="46.384844384303115" width="395.52000000000004" id="textblock"><g><svg viewBox="0 0 395.52000000000004 46.384844384303115" height="46.384844384303115" width="395.52000000000004"><g transform="matrix(1,0,0,1,0,0)"><svg width="395.52000000000004" viewBox="1 -37.5 332.54 39" height="46.384844384303115" data-palette-color="#ffffff"><path d="M43.05-37.5L43.05-22.8 21.8-22.8Q21.8-22.8 21.8-22.8 21.8-22.8 21.8-22.8 21.8-22.8 21.8-22.78 21.8-22.75 21.8-22.75L21.8-22.75 21.8-19.85Q21.8-19.8 21.8-19.8 21.8-19.8 21.8-19.8L21.8-19.8 42.3-19.8 42.3-7.9 21.8-7.9Q21.8-7.9 21.8-7.9 21.8-7.9 21.8-7.85L21.8-7.85Q21.8-6.15 21.8-5.03 21.8-3.9 21.8-2.8 21.8-1.7 21.8 0L21.8 0 1 0Q1-3.55 1-7.1 1-10.65 1-14.18 1-17.7 1-21.25 1-24.8 1-28.35L1-28.35Q1-30.65 1-32.93 1-35.2 1-37.5L1-37.5 43.05-37.5ZM65.6-14.8L65.6-14.8Q65.6-14.75 65.62-14.73 65.65-14.7 65.7-14.7L65.7-14.7 85.2-14.7 85.2 0 44.85 0Q44.85-3.1 44.85-6.2 44.85-9.3 44.85-12.43 44.85-15.55 44.85-18.65 44.85-21.75 44.85-24.85L44.85-24.85Q44.85-28 44.85-31.18 44.85-34.35 44.85-37.5L44.85-37.5 65.6-37.5Q65.6-34.65 65.6-31.83 65.6-29 65.6-26.15 65.6-23.3 65.6-20.48 65.6-17.65 65.6-14.8ZM96.59-37.5L127.65-37.5Q128.55-34.4 129.42-31.28 130.3-28.15 131.17-25.03 132.05-21.9 132.94-18.78 133.84-15.65 134.72-12.53 135.59-9.4 136.47-6.28 137.34-3.15 138.25 0L138.25 0 115.95 0 115.09-4.9Q114.9-4.9 114.75-4.9 114.59-4.9 114.4-4.9L114.4-4.9 108.9-4.9Q108.75-4.9 108.59-4.9 108.45-4.9 108.3-4.9L108.3-4.9 107.45 0 86.09 0Q87-3.15 87.87-6.28 88.75-9.4 89.62-12.53 90.5-15.65 91.37-18.78 92.25-21.9 93.12-25.03 94-28.15 94.87-31.28 95.75-34.4 96.59-37.5L96.59-37.5ZM108.9-8.45L108.9-8.45Q108.9-8.4 108.9-8.4 108.9-8.4 108.95-8.4L108.95-8.4 114.45-8.4Q114.5-8.4 114.5-8.43 114.5-8.45 114.5-8.45 114.5-8.45 114.5-8.45L114.5-8.45Q114.5-8.45 114.3-9.68 114.09-10.9 113.77-12.78 113.45-14.65 113.09-16.78 112.75-18.9 112.45-20.8 112.15-22.7 111.92-23.9 111.7-25.1 111.7-25.1L111.7-25.1Q111.7-25.1 111.67-25.1 111.65-25.1 111.65-25.1L111.65-25.1Q111.65-25.1 111.45-23.9 111.25-22.7 110.92-20.8 110.59-18.9 110.25-16.78 109.9-14.65 109.59-12.78 109.3-10.9 109.09-9.68 108.9-8.45 108.9-8.45ZM134.49-37.5L179.54-37.5 179.54-22.3 167.49-22.3Q167.49-22.3 167.47-22.28 167.44-22.25 167.42-22.25 167.39-22.25 167.39-22.2L167.39-22.2Q167.39-20 167.39-17.78 167.39-15.55 167.39-13.33 167.39-11.1 167.39-8.88 167.39-6.65 167.39-4.42 167.39-2.2 167.39 0L167.39 0 146.64 0Q146.64-3.7 146.64-7.4 146.64-11.1 146.64-14.8 146.64-18.5 146.64-22.2L146.64-22.2Q146.64-22.2 146.64-22.23 146.64-22.25 146.62-22.28 146.59-22.3 146.57-22.3 146.54-22.3 146.54-22.3L146.54-22.3 134.49-22.3 134.49-37.5ZM208.94-37.5L208.94-37.5 229.69-37.5Q229.69-34.35 229.69-31.2 229.69-28.05 229.69-24.9 229.69-21.75 229.69-18.55L229.69-18.55Q229.69-13.95 229.69-9.3 229.69-4.65 229.69 0L229.69 0 208.94 0Q208.94-3.05 208.94-6.1 208.94-9.15 208.94-12.2L208.94-12.2Q208.94-12.25 208.91-12.28 208.89-12.3 208.84-12.3L208.84-12.3 201.99-12.3Q201.94-12.3 201.94-12.28 201.94-12.25 201.94-12.2L201.94-12.2Q201.94-9.15 201.94-6.1 201.94-3.05 201.94 0L201.94 0 181.19 0Q181.19-3 181.19-6 181.19-9 181.19-12 181.19-15 181.19-18 181.19-21 181.19-24 181.19-27 181.19-30L181.19-30Q181.19-31.9 181.19-33.77 181.19-35.65 181.19-37.5L181.19-37.5 201.94-37.5Q201.94-35.1 201.94-32.65 201.94-30.2 201.94-27.78 201.94-25.35 201.94-22.9L201.94-22.9Q201.94-22.85 201.94-22.83 201.94-22.8 201.99-22.8L201.99-22.8 208.84-22.8Q208.89-22.8 208.91-22.83 208.94-22.85 208.94-22.9L208.94-22.9Q208.94-26.55 208.94-30.2 208.94-33.85 208.94-37.5ZM252.44-37.5L231.69-37.5Q231.69-35 231.69-32.38 231.69-29.75 231.69-27.1 231.69-24.45 231.69-21.8L231.69-21.8Q231.69-19.8 231.69-17.78 231.69-15.75 231.69-13.85L231.69-13.85Q231.69-10.8 233.04-8.33 234.39-5.85 236.76-4.03 239.14-2.2 242.26-0.95 245.39 0.3 248.96 0.9 252.54 1.5 256.19 1.5L256.19 1.5Q260.79 1.5 265.16 0.55 269.54-0.4 273.04-2.33 276.54-4.25 278.61-7.13 280.69-10 280.69-13.85L280.69-13.85Q280.69-17.65 280.69-21.68 280.69-25.7 280.69-29.7 280.69-33.7 280.69-37.5L280.69-37.5 259.94-37.5Q259.94-34.75 259.94-32.2 259.94-29.65 259.94-27.25 259.94-24.85 259.94-22.5 259.94-20.15 259.94-17.75L259.94-17.75Q259.94-16.3 258.79-15.55 257.64-14.8 256.19-14.8L256.19-14.8Q255.49-14.8 254.81-15 254.14-15.2 253.61-15.58 253.09-15.95 252.76-16.5 252.44-17.05 252.44-17.8L252.44-17.8Q252.44-22.55 252.44-27.3 252.44-32.05 252.44-37.5L252.44-37.5ZM282.69-37.5L282.69-37.5 322.04-37.5Q325.38-37.5 327.59-36.23 329.79-34.95 330.91-32.95 332.04-30.95 332.04-28.75L332.04-28.75Q332.04-26.55 330.88-24.48 329.74-22.4 327.41-21.1 325.09-19.8 321.59-19.8L321.59-19.8Q321.59-19.8 321.56-19.8 321.54-19.8 321.56-19.78 321.59-19.75 321.59-19.75L321.59-19.75Q325.63-19.75 328.29-18.3 330.94-16.85 332.24-14.6 333.54-12.35 333.54-9.85L333.54-9.85Q333.54-8 332.81-6.25 332.09-4.5 330.63-3.08 329.19-1.65 327.04-0.83 324.88 0 322.04 0L322.04 0 282.69 0Q282.69-3.4 282.69-6.78 282.69-10.15 282.69-13.55 282.69-16.95 282.69-20.33 282.69-23.7 282.69-27.1L282.69-27.1Q282.69-29.7 282.69-32.3 282.69-34.9 282.69-37.5ZM302.38-17.8L302.38-17.8Q302.38-17.25 302.38-16.7 302.38-16.15 302.38-15.6L302.38-15.6Q302.38-15.2 302.38-14.83 302.38-14.45 302.38-14.1 302.38-13.75 302.38-13.4L302.38-13.4Q302.38-13.35 302.38-13.35 302.38-13.35 302.44-13.35L302.44-13.35 309.54-13.35Q310.88-13.35 311.56-14.05 312.24-14.75 312.24-15.65L312.24-15.65Q312.24-16.1 312.08-16.48 311.94-16.85 311.66-17.18 311.38-17.5 310.96-17.68 310.54-17.85 309.99-17.85L309.99-17.85 302.44-17.85Q302.44-17.85 302.41-17.82 302.38-17.8 302.38-17.8ZM309.74-24.85L302.44-24.85Q302.38-24.85 302.38-24.83 302.38-24.8 302.38-24.8L302.38-24.8Q302.38-24.5 302.38-24.13 302.38-23.75 302.38-23.38 302.38-23 302.38-22.6L302.38-22.6Q302.38-22.05 302.38-21.48 302.38-20.9 302.38-20.4L302.38-20.4Q302.38-20.35 302.38-20.35 302.38-20.35 302.44-20.35L302.44-20.35 309.29-20.35Q310.19-20.35 310.79-20.68 311.38-21 311.69-21.53 311.99-22.05 311.99-22.65L311.99-22.65Q311.99-23.5 311.41-24.18 310.83-24.85 309.74-24.85L309.74-24.85Z" opacity="1" transform="matrix(1,0,0,1,0,0)" fill="#ffffff" class="wordmark-text-0" data-fill-palette-color="primary" id="text-0"></path></svg></g></svg></g></svg></g></svg></g><g><svg viewBox="0 0 81.41189577266576 81.41189577266577" height="81.41189577266577" width="81.41189577266576"><g><svg></svg></g><g id="icon-0"><svg viewBox="0 0 81.41189577266576 81.41189577266577" height="81.41189577266577" width="81.41189577266576"><g><path transform="scale(0.81412,0.81412)" d="M30 100c-16.569 0-30-13.431-30-30v-40c0-16.569 13.431-30 30-30h40c16.569 0 30 13.431 30 30v40c0 16.569-13.431 30-30 30z" fill="#00d1cd" fill-rule="nonzero" stroke="none" stroke-width="1" stroke-linecap="butt" stroke-linejoin="miter" stroke-miterlimit="10" stroke-dasharray="" stroke-dashoffset="0" font-family="none" font-weight="none" font-size="none" text-anchor="none" style="mix-blend-mode: normal" data-fill-palette-color="accent"></path></g><g transform="matrix(1,0,0,1,16.28237915453315,19.33532524600812)"><svg viewBox="0 0 48.84713746359946 42.74124528064953" height="42.74124528064953" width="48.84713746359946"><g><svg xmlns="http://www.w3.org/2000/svg" viewBox="0 0 8 7" x="0" y="0" height="42.74124528064953" width="48.84713746359946" class="icon-dxe-0" data-fill-palette-color="quaternary" id="dxe-0"><path d="M0 0V7H7V3.41L6 4.41V6H1V1H4.59L5.59 0zM7 0L4 3 3 2 2 3 4 5 8 1z" fill="#444444" data-fill-palette-color="quaternary"></path></svg></g></svg></g></svg></g></svg></g></svg></g><defs></defs></svg><rect width="395.52" height="65.99960009304951" fill="none" stroke="none" visibility="hidden"></rect></g></svg></g></svg>